<mxfile host="Electron" agent="Mozilla/5.0 (X11; Linux x86_64) AppleWebKit/537.36 (KHTML, like Gecko) draw.io/28.2.5 Chrome/138.0.7204.251 Electron/37.6.1 Safari/537.36" version="28.2.5">
  <diagram name="第 1 页" id="A2wYnKDMZFF023bxGnZ8">
    <mxGraphModel dx="599" dy="788" grid="1" gridSize="10" guides="1" tooltips="1" connect="1" arrows="1" fold="1" page="1" pageScale="1" pageWidth="827" pageHeight="1169" math="0" shadow="0">
      <root>
        <mxCell id="0" />
        <mxCell id="1" parent="0" />
        <mxCell id="lc5mf7nCTQjh2SExQ85K-13" value="" style="rounded=0;whiteSpace=wrap;html=1;" parent="1" vertex="1">
          <mxGeometry x="860" y="150" width="1270" height="620" as="geometry" />
        </mxCell>
        <mxCell id="1i7iyDztXm2SfSE6uJK3-13" value="&lt;div&gt;FormattingConversionService&lt;/div&gt;" style="html=1;whiteSpace=wrap;fontSize=20;verticalAlign=middle;align=center;fillColor=#ffe6cc;strokeColor=#d79b00;" parent="1" vertex="1">
          <mxGeometry x="1350" y="550" width="290" height="51" as="geometry" />
        </mxCell>
        <mxCell id="mEVcy1A5f8fxIJjsYzMS-3" value="ApplicationConversionService" style="html=1;whiteSpace=wrap;fontSize=20;fontStyle=0;fillColor=#fff2cc;strokeColor=#d6b656;fontColor=#FF0000;" parent="1" vertex="1">
          <mxGeometry x="1340" y="670" width="310" height="50" as="geometry" />
        </mxCell>
        <mxCell id="mEVcy1A5f8fxIJjsYzMS-14" value="«interface»&lt;br&gt;ConversionService" style="html=1;whiteSpace=wrap;fontSize=20;fontStyle=0;fillColor=#ffe6cc;strokeColor=#d79b00;" parent="1" vertex="1">
          <mxGeometry x="1560" y="210" width="240" height="50" as="geometry" />
        </mxCell>
        <mxCell id="mEVcy1A5f8fxIJjsYzMS-32" value="GenericConversionService" style="html=1;whiteSpace=wrap;fontSize=20;fontStyle=0;fillColor=#ffe6cc;strokeColor=#d79b00;" parent="1" vertex="1">
          <mxGeometry x="1350" y="435" width="290" height="50" as="geometry" />
        </mxCell>
        <mxCell id="mEVcy1A5f8fxIJjsYzMS-37" value="spring&lt;div&gt;&lt;br&gt;&lt;/div&gt;" style="shape=module;align=left;spacingLeft=20;align=center;verticalAlign=top;whiteSpace=wrap;html=1;fontSize=20;fillColor=#ffe6cc;strokeColor=#d79b00;" parent="1" vertex="1">
          <mxGeometry x="1920" y="180" width="160" height="50" as="geometry" />
        </mxCell>
        <mxCell id="niGxci4QFYQhAbnv4uGF-1" value="springboot&lt;div&gt;&lt;br&gt;&lt;/div&gt;" style="shape=module;align=left;spacingLeft=20;align=center;verticalAlign=top;whiteSpace=wrap;html=1;fontSize=20;fillColor=#fff2cc;strokeColor=#d6b656;" vertex="1" parent="1">
          <mxGeometry x="1920" y="240" width="160" height="50" as="geometry" />
        </mxCell>
        <mxCell id="niGxci4QFYQhAbnv4uGF-2" value="Extends" style="endArrow=block;endSize=16;endFill=0;html=1;rounded=0;exitX=0.5;exitY=0;exitDx=0;exitDy=0;entryX=0.5;entryY=1;entryDx=0;entryDy=0;" edge="1" parent="1" source="mEVcy1A5f8fxIJjsYzMS-3" target="1i7iyDztXm2SfSE6uJK3-13">
          <mxGeometry width="160" relative="1" as="geometry">
            <mxPoint x="1170" y="500" as="sourcePoint" />
            <mxPoint x="1330" y="500" as="targetPoint" />
          </mxGeometry>
        </mxCell>
        <mxCell id="niGxci4QFYQhAbnv4uGF-3" value="Extends" style="endArrow=block;endSize=16;endFill=0;html=1;rounded=0;exitX=0.5;exitY=0;exitDx=0;exitDy=0;entryX=0.5;entryY=1;entryDx=0;entryDy=0;" edge="1" parent="1" source="1i7iyDztXm2SfSE6uJK3-13" target="mEVcy1A5f8fxIJjsYzMS-32">
          <mxGeometry width="160" relative="1" as="geometry">
            <mxPoint x="1340" y="460" as="sourcePoint" />
            <mxPoint x="1500" y="460" as="targetPoint" />
          </mxGeometry>
        </mxCell>
        <mxCell id="niGxci4QFYQhAbnv4uGF-4" value="«interface»&lt;br&gt;ConfigurableConversionService" style="html=1;whiteSpace=wrap;fontSize=20;fontStyle=0;fillColor=#ffe6cc;strokeColor=#d79b00;" vertex="1" parent="1">
          <mxGeometry x="1342.5" y="320" width="305" height="50" as="geometry" />
        </mxCell>
        <mxCell id="niGxci4QFYQhAbnv4uGF-6" value="" style="endArrow=block;dashed=1;endFill=0;endSize=12;html=1;rounded=0;exitX=0.5;exitY=0;exitDx=0;exitDy=0;entryX=0.5;entryY=1;entryDx=0;entryDy=0;" edge="1" parent="1" source="mEVcy1A5f8fxIJjsYzMS-32" target="niGxci4QFYQhAbnv4uGF-4">
          <mxGeometry width="160" relative="1" as="geometry">
            <mxPoint x="1520" y="400" as="sourcePoint" />
            <mxPoint x="1680" y="400" as="targetPoint" />
          </mxGeometry>
        </mxCell>
        <mxCell id="niGxci4QFYQhAbnv4uGF-7" value="Extends" style="endArrow=block;endSize=16;endFill=0;html=1;rounded=0;exitX=0.5;exitY=0;exitDx=0;exitDy=0;" edge="1" parent="1" source="niGxci4QFYQhAbnv4uGF-4" target="mEVcy1A5f8fxIJjsYzMS-14">
          <mxGeometry width="160" relative="1" as="geometry">
            <mxPoint x="1220" y="290" as="sourcePoint" />
            <mxPoint x="1380" y="290" as="targetPoint" />
          </mxGeometry>
        </mxCell>
        <mxCell id="niGxci4QFYQhAbnv4uGF-8" value="«interface»&lt;br&gt;ConverterRegistry" style="html=1;whiteSpace=wrap;fontSize=20;fontStyle=0;fillColor=#ffe6cc;strokeColor=#d79b00;" vertex="1" parent="1">
          <mxGeometry x="1230" y="210" width="240" height="50" as="geometry" />
        </mxCell>
        <mxCell id="niGxci4QFYQhAbnv4uGF-9" value="Extends" style="endArrow=block;endSize=16;endFill=0;html=1;rounded=0;exitX=0.5;exitY=0;exitDx=0;exitDy=0;entryX=0.5;entryY=1;entryDx=0;entryDy=0;" edge="1" parent="1" source="niGxci4QFYQhAbnv4uGF-4" target="niGxci4QFYQhAbnv4uGF-8">
          <mxGeometry width="160" relative="1" as="geometry">
            <mxPoint x="1180" y="300" as="sourcePoint" />
            <mxPoint x="1340" y="300" as="targetPoint" />
          </mxGeometry>
        </mxCell>
        <mxCell id="niGxci4QFYQhAbnv4uGF-11" value="«interface»&lt;br&gt;FormatterRegistry" style="html=1;whiteSpace=wrap;fontSize=20;fontStyle=0;fillColor=#ffe6cc;strokeColor=#d79b00;" vertex="1" parent="1">
          <mxGeometry x="1010" y="435" width="240" height="50" as="geometry" />
        </mxCell>
        <mxCell id="niGxci4QFYQhAbnv4uGF-12" value="«interface»&lt;br&gt;EmbeddedValueResolverAware" style="html=1;whiteSpace=wrap;fontSize=20;fontStyle=0;fillColor=#ffe6cc;strokeColor=#d79b00;" vertex="1" parent="1">
          <mxGeometry x="1720" y="435" width="300" height="50" as="geometry" />
        </mxCell>
        <mxCell id="niGxci4QFYQhAbnv4uGF-13" value="" style="endArrow=block;dashed=1;endFill=0;endSize=12;html=1;rounded=0;exitX=0.5;exitY=0;exitDx=0;exitDy=0;entryX=0.5;entryY=1;entryDx=0;entryDy=0;" edge="1" parent="1" source="1i7iyDztXm2SfSE6uJK3-13" target="niGxci4QFYQhAbnv4uGF-11">
          <mxGeometry width="160" relative="1" as="geometry">
            <mxPoint x="1140" y="540" as="sourcePoint" />
            <mxPoint x="1300" y="540" as="targetPoint" />
          </mxGeometry>
        </mxCell>
        <mxCell id="niGxci4QFYQhAbnv4uGF-14" value="" style="endArrow=block;dashed=1;endFill=0;endSize=12;html=1;rounded=0;exitX=0.5;exitY=0;exitDx=0;exitDy=0;entryX=0.5;entryY=1;entryDx=0;entryDy=0;" edge="1" parent="1" source="1i7iyDztXm2SfSE6uJK3-13" target="niGxci4QFYQhAbnv4uGF-12">
          <mxGeometry width="160" relative="1" as="geometry">
            <mxPoint x="1730" y="540" as="sourcePoint" />
            <mxPoint x="1890" y="540" as="targetPoint" />
          </mxGeometry>
        </mxCell>
        <mxCell id="niGxci4QFYQhAbnv4uGF-15" value="Extends" style="endArrow=block;endSize=16;endFill=0;html=1;rounded=0;exitX=0.5;exitY=0;exitDx=0;exitDy=0;entryX=0.5;entryY=1;entryDx=0;entryDy=0;" edge="1" parent="1" source="niGxci4QFYQhAbnv4uGF-11" target="niGxci4QFYQhAbnv4uGF-8">
          <mxGeometry width="160" relative="1" as="geometry">
            <mxPoint x="1060" y="340" as="sourcePoint" />
            <mxPoint x="1220" y="340" as="targetPoint" />
          </mxGeometry>
        </mxCell>
        <mxCell id="niGxci4QFYQhAbnv4uGF-16" value="«interface»&lt;br&gt;Aware" style="html=1;whiteSpace=wrap;fontSize=20;fontStyle=0;fillColor=#ffe6cc;strokeColor=#d79b00;" vertex="1" parent="1">
          <mxGeometry x="1800" y="320" width="140" height="50" as="geometry" />
        </mxCell>
        <mxCell id="niGxci4QFYQhAbnv4uGF-17" value="Extends" style="endArrow=block;endSize=16;endFill=0;html=1;rounded=0;exitX=0.5;exitY=0;exitDx=0;exitDy=0;entryX=0.5;entryY=1;entryDx=0;entryDy=0;" edge="1" parent="1" source="niGxci4QFYQhAbnv4uGF-12" target="niGxci4QFYQhAbnv4uGF-16">
          <mxGeometry width="160" relative="1" as="geometry">
            <mxPoint x="1820" y="390" as="sourcePoint" />
            <mxPoint x="1980" y="390" as="targetPoint" />
          </mxGeometry>
        </mxCell>
      </root>
    </mxGraphModel>
  </diagram>
</mxfile>
